<svg id="Layer_1" data-name="Layer 1" xmlns="http://www.w3.org/2000/svg" viewBox="0 0 1755.58 2000"><path d="M793.53,1222.12a60.51,60.51,0,0,1,19.19-12.27l45.6,47.38c-4.67,6.24-10.14,11.32-16.46,14.58-6.3,3.64-13.53,5.11-21.5,5.11a36.63,36.63,0,0,1-12.77-2.22,35,35,0,0,1-11.2-6.27,37.47,37.47,0,0,1-8-10.16,30.35,30.35,0,0,1-3.2-13.75c0-9.63,2.83-17.26,8.37-22.4Zm23-117.9q7-6.69,17.71-6.67c7.39,0,13.42,2.21,17.91,6.85a24.19,24.19,0,0,1,6.59,16.77,27,27,0,0,1-8.8,20.1,71.35,71.35,0,0,1-21.23,13.53c-6.31-5.2-11.17-10.62-14.34-16.18a33.35,33.35,0,0,1-5-17.45,22.38,22.38,0,0,1,7.21-17ZM0,0V648c25.2-51.69,57.6-96.95,98-134.95,46.62-43,100.83-76.09,163.32-99.38C323.4,390.47,390.91,379,463.21,379q100.34,0,197.22,35.41,73.76,27,126.21,73V396.75h631.78v198H1015.68V792.82h371.61v191H1015.68V1356.7h-229v-36.52a136.9,136.9,0,0,0,31.44,3.84c18,0,33.11-2.89,45.14-8.58a99.74,99.74,0,0,0,30.43-21.66L918.14,1319h75.53l-64.27-63.81,55.81-74.83h-66.4l-25.71,39.78-32.62-33.2a192,192,0,0,0,20-12.09,92.43,92.43,0,0,0,16.8-14.74,65.39,65.39,0,0,0,10.92-18.21,57.85,57.85,0,0,0,4.16-22.49c0-11.38-2.4-21.26-6.9-29.6a62.53,62.53,0,0,0-17.84-20.46,79.71,79.71,0,0,0-25.35-11.88,117,117,0,0,0-28.77-3.81,121.69,121.69,0,0,0-28.65,3.75,72,72,0,0,0-18.21,7.29V548.9L662.37,673.14C641,643.75,612.71,622,578.22,607.48c-34.77-14-70.64-21.23-107-21.23q-60.32,0-110.3,22a260.79,260.79,0,0,0-86.46,60.86c-24.06,25.9-42.67,56.49-56.06,91.5C205,796.15,198.3,834.57,198.3,876.48c0,42.64,6.74,82,20.12,117.69s31.81,66,55.47,91.59a248.81,248.81,0,0,0,85,59.29c33.1,14.4,69.13,21.7,108.33,21.7q68.2,0,118.92-26.84t81.56-69.6l111.75,105.17h.06A149.94,149.94,0,0,0,759,1186.89a81,81,0,0,0-17.45,15.3,68.7,68.7,0,0,0-11.69,20.06,67.56,67.56,0,0,0-4.46,24.85c0,13.18,2.65,24.46,7.91,34.1a79.83,79.83,0,0,0,9,13.08,470.65,470.65,0,0,1-70.61,40.09q-92.11,42-212.54,42.24-109.56,0-202.73-36-92.8-36.18-161.07-102.49c-39.1-38.09-70.67-83.07-95.41-134v652.39H1755.58V0Z" style="fill:#005eb8"/><polygon points="786.58 1567.09 858.58 1567.09 858.58 1581.28 801.68 1581.28 801.68 1614.5 854.63 1614.5 854.63 1628.69 801.68 1628.69 801.68 1664.43 861.4 1664.43 861.4 1678.63 786.58 1678.63 786.58 1567.09 786.58 1567.09" style="fill:#fff"/><path d="M901.16,1655.3a24.21,24.21,0,0,0,10.46,9,30.73,30.73,0,0,0,13.16,3,27.11,27.11,0,0,0,7.69-1.2,23,23,0,0,0,7.2-3.54,20,20,0,0,0,5.27-5.85,15.52,15.52,0,0,0,2.06-8c0-4.27-1.39-7.6-4.13-9.84a34.55,34.55,0,0,0-10.15-5.66c-4.06-1.51-8.46-3-13.23-4.4a53.12,53.12,0,0,1-13.23-5.91,32,32,0,0,1-10.15-10.15c-2.74-4.28-4.12-10-4.12-17.3a29.87,29.87,0,0,1,8.82-20.45,38,38,0,0,1,11.73-7.66,44.26,44.26,0,0,1,17.29-3,60.13,60.13,0,0,1,17.48,2.52A30.19,30.19,0,0,1,962,1577l-12.31,11.18a20.61,20.61,0,0,0-8-7.11,25.62,25.62,0,0,0-11.82-2.65,28.58,28.58,0,0,0-10.49,1.66,19.1,19.1,0,0,0-6.71,4.25,14.39,14.39,0,0,0-3.53,5.6,17.11,17.11,0,0,0-1.06,5.47c0,4.74,1.4,8.37,4.13,10.89a31.65,31.65,0,0,0,10.15,6.16,127.14,127.14,0,0,0,13.23,4.25,55.1,55.1,0,0,1,13.23,5.29,30.23,30.23,0,0,1,10.15,9.11c2.74,3.84,4.13,9.1,4.13,15.84a33.68,33.68,0,0,1-3.07,14.49,32.14,32.14,0,0,1-8.28,10.86,37.3,37.3,0,0,1-12.28,6.81,49,49,0,0,1-15.14,2.34,55.52,55.52,0,0,1-20.3-3.76A33.42,33.42,0,0,1,888.7,1666l12.46-10.71Z" style="fill:#fff"/><polygon points="1023.64 1581.28 987.73 1581.28 987.73 1567.09 1074.68 1567.09 1074.68 1581.28 1038.74 1581.28 1038.74 1678.63 1023.64 1678.63 1023.64 1581.28 1023.64 1581.28" style="fill:#fff"/><path d="M1103.67,1679.54a10.43,10.43,0,0,1-10.4-10.36,10.37,10.37,0,0,1,17.72-7.36,10.29,10.29,0,0,1,0,14.68,9.94,9.94,0,0,1-7.32,3Z" style="fill:#fff"/><polygon points="1207.72 1584.41 1187.23 1603.3 1178.4 1592.78 1209.45 1567.09 1222.83 1567.09 1222.83 1678.63 1207.72 1678.63 1207.72 1584.41 1207.72 1584.41" style="fill:#fff"/><path d="M1283.54,1595.12a18.09,18.09,0,0,0,1.16,6.46,17.76,17.76,0,0,0,3.39,5.6,17.45,17.45,0,0,0,5.41,4,16.63,16.63,0,0,0,7.51,1.6,17.64,17.64,0,0,0,7.63-1.51,16.32,16.32,0,0,0,5.44-3.94,16.58,16.58,0,0,0,3.3-5.56,20,20,0,0,0,1.11-6.65,17.53,17.53,0,0,0-4.8-12.68c-3.2-3.32-7.45-5-12.68-5a17.24,17.24,0,0,0-12.36,4.89c-3.43,3.26-5.11,7.51-5.11,12.74ZM1301,1667.3c6.28,0,11.42-1.94,15.35-5.78s5.91-8.8,5.91-14.9a22.69,22.69,0,0,0-1.63-8.86,17.88,17.88,0,0,0-4.58-6.45,19.05,19.05,0,0,0-6.81-4A24.07,24.07,0,0,0,1301,1626c-6.21.12-11.29,2.09-15.29,5.91a19.54,19.54,0,0,0-6,14.7,21.32,21.32,0,0,0,1.76,8.77,18.46,18.46,0,0,0,4.64,6.43,21.09,21.09,0,0,0,6.77,4.07,24,24,0,0,0,8.12,1.41Zm0,13.23a44.37,44.37,0,0,1-14.27-2.31,33,33,0,0,1-11.57-6.67,31.19,31.19,0,0,1-7.69-10.71,34,34,0,0,1-2.87-14.22,27.31,27.31,0,0,1,1.66-9.6,28.4,28.4,0,0,1,4.5-7.93,26.35,26.35,0,0,1,6.67-6,31.75,31.75,0,0,1,8.44-3.7v-.46a21.58,21.58,0,0,1-6.29-2.83,22.52,22.52,0,0,1-5.59-5.23,26.81,26.81,0,0,1-4-7.63,31.09,31.09,0,0,1-1.57-10.34,24.81,24.81,0,0,1,2.58-11.38,26.56,26.56,0,0,1,7.11-8.73,32.07,32.07,0,0,1,10.4-5.61,40.8,40.8,0,0,1,25,0,32,32,0,0,1,10.39,5.61,25.87,25.87,0,0,1,7.08,8.73,24.46,24.46,0,0,1,2.62,11.38,31.32,31.32,0,0,1-1.6,10.34,26.06,26.06,0,0,1-4,7.63,23.27,23.27,0,0,1-5.6,5.23,21.25,21.25,0,0,1-6.27,2.83v.46a31.83,31.83,0,0,1,8.43,3.7,26.91,26.91,0,0,1,6.68,6,29.11,29.11,0,0,1,4.48,7.93,27.53,27.53,0,0,1,1.64,9.6,34,34,0,0,1-2.83,14.22,32,32,0,0,1-7.69,10.71,33,33,0,0,1-11.6,6.67,44.2,44.2,0,0,1-14.25,2.31Z" style="fill:#fff"/><path d="M1369,1662.56l44.73-44.43a61.85,61.85,0,0,0,4.59-4.8,43.58,43.58,0,0,0,3.93-5.44,28.12,28.12,0,0,0,2.75-6,20.69,20.69,0,0,0,1-6.59,17.8,17.8,0,0,0-1.48-7.41,15.67,15.67,0,0,0-4.12-5.6,19.1,19.1,0,0,0-6.12-3.54,21.76,21.76,0,0,0-7.48-1.26c-5.48,0-10,1.51-13.54,4.58a20.53,20.53,0,0,0-6.77,12.59l-16.4-1.42a34.32,34.32,0,0,1,4.35-12.83,30.33,30.33,0,0,1,8-9.05,32.5,32.5,0,0,1,11-5.38,51.16,51.16,0,0,1,13.47-1.72,46,46,0,0,1,13.63,2,34.05,34.05,0,0,1,11.21,5.82,27.24,27.24,0,0,1,7.53,9.6,30.88,30.88,0,0,1,2.74,13.48,31.35,31.35,0,0,1-1.63,10.34,43.74,43.74,0,0,1-4.34,9,54.22,54.22,0,0,1-6.15,8.06c-2.28,2.49-4.71,5-7.23,7.39L1386,1665.39h56.06v13.23H1369v-16.06Z" style="fill:#fff"/><path d="M1475.46,1662.56l44.74-44.43a61.57,61.57,0,0,0,4.56-4.8,44.63,44.63,0,0,0,3.93-5.44,26.35,26.35,0,0,0,2.77-6,21.57,21.57,0,0,0,1-6.59,18,18,0,0,0-1.51-7.41,15.5,15.5,0,0,0-4.1-5.6,19.43,19.43,0,0,0-6.12-3.54,21.89,21.89,0,0,0-7.51-1.26c-5.44,0-10,1.51-13.53,4.58a20.43,20.43,0,0,0-6.77,12.59l-16.37-1.42a34.29,34.29,0,0,1,4.31-12.83,30.56,30.56,0,0,1,8.06-9.05,32.59,32.59,0,0,1,11-5.38,50.91,50.91,0,0,1,13.48-1.72,46,46,0,0,1,13.6,2,33.61,33.61,0,0,1,11.2,5.82,27.69,27.69,0,0,1,7.57,9.6,31,31,0,0,1,2.74,13.48,31.61,31.61,0,0,1-1.63,10.34,43.89,43.89,0,0,1-4.38,9,56,56,0,0,1-6.11,8.06c-2.32,2.49-4.71,5-7.24,7.39l-36.73,35.44h56.09v13.23h-73.08v-16.06Z" style="fill:#fff"/><path d="M16.34,1997.43H.7l43.64-100.58H57.12l43.21,100.58H84.41l-10.22-24.72H26.41Zm15.07-37.07H69.05l-18.77-47.25Z" style="fill:#005eb8"/><path d="M191.27,1997.43H177.2V1896.85H240v12.36H191.27v31.18H236.9v12.17H191.27Z" style="fill:#005eb8"/><path d="M274.07,1997.43H258.43l43.64-100.58h12.79l43.21,100.58H342.14l-10.22-24.72H284.15Zm15.07-37.07h37.65L308,1913.11Z" style="fill:#005eb8"/><path d="M403.75,1997.43H389.68V1896.85h14.07Z" style="fill:#005eb8"/><path d="M461,1997.43H446.91V1896.85h32.28a64.5,64.5,0,0,1,13.78,1.42,35,35,0,0,1,11.46,4.76,23.48,23.48,0,0,1,7.75,8.65,27.82,27.82,0,0,1,2.8,13c0,7.32-2.23,13.31-6.79,17.88s-10.41,7.41-17.64,8.65l28.14,46.2H501.63l-25.58-44.78H461Zm0-56.56h16.21a46.39,46.39,0,0,0,9.22-.86,23.73,23.73,0,0,0,7.47-2.76,13.35,13.35,0,0,0,6.89-12.55,14.71,14.71,0,0,0-1.81-7.6,14.11,14.11,0,0,0-4.94-4.95,22.61,22.61,0,0,0-7.18-2.66,50.62,50.62,0,0,0-8.65-.76H461Z" style="fill:#005eb8"/><path d="M567,1997.43H552.92V1896.85h62.84v12.36H567v31.18h45.63v12.17H567Z" style="fill:#005eb8"/><path d="M649.79,1997.43H634.15l43.64-100.58h12.79l43.21,100.58H717.86l-10.22-24.72H659.87Zm15.07-37.07h37.65l-18.78-47.25Z" style="fill:#005eb8"/><path d="M805,1934.31l23.87-37.46H845.4l-32.13,47.53,36.55,53H832L804.47,1955l-27,42.4H760.12l35.94-53.33-32.37-47.25h17.16Z" style="fill:#005eb8"/><path d="M1014.91,1981.84A46.39,46.39,0,0,1,999.42,1995c-6.33,3.33-14,5-22.87,5a57.06,57.06,0,0,1-21.25-3.9,48.92,48.92,0,0,1-27.81-27.76,59.6,59.6,0,0,1,.1-42.88,48.51,48.51,0,0,1,11.22-16.63,52.12,52.12,0,0,1,17-10.75,58.05,58.05,0,0,1,21.34-3.8,55.7,55.7,0,0,1,10.36,1,57.34,57.34,0,0,1,10.08,3,44.2,44.2,0,0,1,8.84,4.94,30.46,30.46,0,0,1,6.8,6.75l-11.07,8.56a27.29,27.29,0,0,0-10.46-8.46,31.63,31.63,0,0,0-14.55-3.33,38.7,38.7,0,0,0-15.88,3.14,36.35,36.35,0,0,0-12,8.74,39.19,39.19,0,0,0-7.7,12.93,43.86,43.86,0,0,0-2.71,15.5,47.28,47.28,0,0,0,2.66,16,37.54,37.54,0,0,0,7.51,12.84,34.26,34.26,0,0,0,11.93,8.55,38.29,38.29,0,0,0,15.73,3.14,34.83,34.83,0,0,0,15.5-3.42,29.15,29.15,0,0,0,11.5-9.89Z" style="fill:#005eb8"/><path d="M1146.92,1947a54.75,54.75,0,0,1-4,21.39,50.86,50.86,0,0,1-11.17,16.83,51.44,51.44,0,0,1-16.93,10.93,57.61,57.61,0,0,1-21.29,3.9,57,57,0,0,1-21.25-3.9,51.74,51.74,0,0,1-16.88-10.93,50.61,50.61,0,0,1-11.07-16.83,60.16,60.16,0,0,1,0-42.88,48.86,48.86,0,0,1,11.07-16.63,51.3,51.3,0,0,1,16.88-10.75,57.2,57.2,0,0,1,21.25-3.8,57.79,57.79,0,0,1,21.29,3.8,51,51,0,0,1,16.93,10.75,49.1,49.1,0,0,1,11.17,16.63A55.29,55.29,0,0,1,1146.92,1947Zm-15.21,0a44.08,44.08,0,0,0-2.71-15.5,39.27,39.27,0,0,0-7.66-12.93,36.45,36.45,0,0,0-12-8.74,41.25,41.25,0,0,0-31.57,0,36.19,36.19,0,0,0-11.93,8.74,39.83,39.83,0,0,0-7.6,12.93,43.86,43.86,0,0,0-2.71,15.5,45.38,45.38,0,0,0,2.71,15.78,39.09,39.09,0,0,0,7.7,12.93,35.61,35.61,0,0,0,11.93,8.56,37.7,37.7,0,0,0,15.64,3.14,38.83,38.83,0,0,0,15.78-3.14,36.09,36.09,0,0,0,12.07-8.56,39.17,39.17,0,0,0,7.66-12.93A45.62,45.62,0,0,0,1131.71,1947Z" style="fill:#005eb8"/><path d="M1236.76,1974.14h.24l29.71-77.29h21.91v100.58h-14.07V1913.3h-.28l-33.42,84.13h-8.94l-33.27-84.13h-.29v84.13h-13.64V1896.85h21.91Z" style="fill:#005eb8"/><path d="M1331.69,1896.85h30.71a59.79,59.79,0,0,1,14.78,1.61,31.2,31.2,0,0,1,11.36,5,22.92,22.92,0,0,1,7.27,8.65,28.64,28.64,0,0,1,2.52,12.65,28,28,0,0,1-2.75,12.93,24.28,24.28,0,0,1-7.66,8.84,35.64,35.64,0,0,1-11.64,5,64.84,64.84,0,0,1-14.6,1.62h-15.92v44.2h-14.07Zm14.07,44.4h14.92a48.9,48.9,0,0,0,9.46-.86,26,26,0,0,0,7.47-2.85,13.77,13.77,0,0,0,4.85-5,15.91,15.91,0,0,0,1.66-7.7,14.78,14.78,0,0,0-1.76-7.61,14.24,14.24,0,0,0-4.85-4.94,20.25,20.25,0,0,0-7.32-2.76,55.73,55.73,0,0,0-9.22-.76h-15.21Z" style="fill:#005eb8"/><path d="M1429.85,1997.43h-15.64l43.64-100.58h12.78l43.21,100.58h-15.92l-10.22-24.72h-47.77Zm15.07-37.07h37.65l-18.78-47.25Z" style="fill:#005eb8"/><path d="M1616.38,1977.28h.28v-80.43h14.07v100.58H1613l-53.14-82.14h-.29v82.14h-14.07V1896.85h18.35Z" style="fill:#005eb8"/><path d="M1713.68,1997.43h-14.21V1954l-37.65-57.14h17.35l27.86,45.44,28-45.44h16.35l-37.7,57.14Z" style="fill:#005eb8"/></svg>